<?xml version="1.0" standalone="no"?>
<!DOCTYPE svg PUBLIC "-//W3C//DTD SVG 20010904//EN"
 "http://www.w3.org/TR/2001/REC-SVG-20010904/DTD/svg10.dtd">
<svg version="1.0" xmlns="http://www.w3.org/2000/svg"
 width="254.000000pt" height="254.000000pt" viewBox="0 0 254.000000 254.000000"
 preserveAspectRatio="xMidYMid meet">
<metadata>
Created by potrace 1.10, written by Peter Selinger 2001-2011
</metadata>
<g transform="translate(0.000000,254.000000) scale(0.100000,-0.100000)"
fill="#000000" stroke="none">
<path d="M1703 2310 c-30 -12 -63 -67 -63 -103 0 -16 18 -59 39 -95 51 -86 57
-119 36 -183 -23 -68 -88 -129 -195 -181 -47 -23 -94 -45 -105 -49 -11 -4 -72
-32 -135 -62 -63 -30 -133 -62 -155 -72 -109 -47 -129 -63 -139 -105 -14 -58
71 -129 156 -130 92 0 401 134 547 238 100 72 202 179 240 256 65 127 51 265
-39 383 -67 88 -134 125 -187 103z m82 -43 c38 -26 105 -105 105 -124 0 -7 3
-13 8 -13 26 0 44 -206 22 -250 -5 -11 -14 -29 -20 -40 -5 -11 -16 -30 -22
-42 -18 -31 -145 -159 -188 -188 -19 -13 -37 -27 -40 -31 -9 -13 -227 -126
-325 -169 -133 -58 -255 -58 -302 0 -32 39 -4 79 77 110 19 7 73 33 120 56 78
39 134 64 185 84 136 52 209 93 273 156 35 36 62 71 62 82 0 12 5 24 10 27 17
10 11 97 -10 142 -10 24 -33 64 -51 89 l-32 47 18 31 c36 61 59 68 110 33z"/>
<path d="M1500 2139 c-8 -5 -80 -36 -160 -69 -189 -79 -175 -73 -250 -111
-143 -72 -177 -95 -256 -174 -91 -91 -137 -191 -147 -321 -12 -141 20 -241
106 -327 49 -50 99 -77 142 -77 99 0 151 129 77 192 -61 52 -80 85 -87 150 -8
78 8 127 69 212 80 111 122 141 371 263 188 92 245 138 245 196 0 61 -60 98
-110 66z m90 -66 c0 -25 -92 -100 -160 -130 -72 -31 -165 -79 -168 -85 -2 -5
-12 -8 -23 -8 -10 0 -19 -3 -19 -8 0 -4 -15 -13 -32 -21 -86 -37 -161 -104
-227 -201 -64 -93 -85 -163 -69 -230 16 -72 34 -103 82 -145 37 -32 46 -46 46
-73 0 -34 -9 -48 -48 -69 -31 -18 -56 -16 -99 8 -42 24 -103 86 -103 106 0 7
-4 13 -10 13 -5 0 -10 9 -10 19 0 11 -4 22 -9 25 -30 19 -30 293 0 312 5 3 9
14 9 25 0 10 5 19 10 19 6 0 10 9 10 20 0 11 4 20 8 20 5 0 15 12 23 27 42 83
243 223 404 283 11 4 34 13 50 20 17 7 39 16 50 20 11 4 43 18 70 30 28 12 59
26 70 30 11 5 40 17 65 28 l45 21 18 -21 c9 -11 17 -27 17 -35z"/>
<path d="M1494 2045 c-16 -14 -24 -25 -19 -25 14 0 72 49 59 50 -6 0 -24 -11
-40 -25z"/>
<path d="M1709 1534 c-21 -7 -49 -57 -49 -90 0 -15 21 -60 48 -103 46 -74 47
-78 46 -151 -1 -79 -21 -133 -79 -210 -75 -100 -279 -220 -479 -282 -80 -24
-118 -41 -143 -64 -40 -38 -44 -83 -12 -115 19 -19 28 -21 98 -14 81 7 234 39
263 55 10 6 25 10 33 10 8 0 23 4 33 9 9 5 52 23 94 39 194 76 347 227 411
407 16 47 21 84 21 170 1 96 -2 117 -24 165 -13 30 -32 64 -42 74 -10 11 -18
23 -18 26 0 4 -20 21 -45 39 -43 31 -115 47 -156 35z m126 -55 c103 -74 162
-246 125 -363 -5 -17 -15 -52 -22 -78 -7 -27 -16 -48 -20 -48 -4 0 -8 -6 -8
-13 0 -18 -24 -67 -32 -67 -5 0 -8 -6 -8 -14 0 -23 -101 -120 -180 -172 -71
-47 -94 -60 -157 -85 -16 -6 -36 -15 -45 -20 -10 -5 -25 -9 -33 -9 -8 0 -23
-4 -33 -9 -31 -15 -88 -31 -115 -31 -14 0 -28 -4 -31 -9 -3 -5 -34 -12 -68
-15 -35 -4 -84 -10 -110 -13 l-48 -5 0 34 c0 41 19 60 75 78 22 7 49 16 60 20
11 5 55 19 97 31 43 13 78 27 78 32 0 4 6 7 14 7 17 0 100 42 104 53 2 4 9 7
14 7 6 0 36 19 67 42 165 124 233 232 233 368 0 70 -5 82 -70 177 -23 34 -42
67 -42 72 0 6 10 22 22 36 31 36 78 33 133 -6z"/>
<path d="M1489 1326 c-19 -7 -83 -41 -144 -75 -60 -35 -135 -77 -165 -94 -30
-17 -73 -42 -95 -56 -22 -15 -61 -37 -87 -50 -173 -87 -324 -331 -304 -495 6
-57 36 -146 48 -146 4 0 8 -7 8 -16 0 -8 25 -40 55 -70 50 -48 60 -54 98 -54
47 0 81 23 98 67 14 38 11 64 -17 118 -43 84 -45 99 -24 181 36 141 118 224
334 338 259 137 330 191 336 251 1 11 2 26 1 32 -1 13 -58 72 -70 74 -3 0 -13
2 -22 4 -8 1 -31 -3 -50 -9z m84 -47 c20 -17 37 -37 37 -45 0 -39 -119 -121
-345 -238 -33 -17 -69 -39 -79 -48 -11 -10 -26 -18 -33 -18 -7 0 -13 -4 -13
-8 0 -4 -13 -15 -28 -24 -41 -24 -132 -117 -132 -134 0 -7 -4 -14 -10 -14 -5
0 -10 -9 -10 -19 0 -11 -4 -23 -10 -26 -5 -3 -10 -17 -10 -30 0 -13 -4 -27
-10 -30 -5 -3 -10 -35 -10 -70 0 -51 6 -74 30 -120 37 -71 38 -104 4 -139 -29
-29 -45 -32 -76 -15 -43 23 -128 131 -128 163 0 8 -4 18 -10 21 -12 8 -13 189
-1 213 5 9 17 35 28 57 44 90 62 114 140 190 35 34 90 75 130 95 37 19 79 42
93 51 29 19 88 53 145 83 22 12 42 23 45 26 3 3 34 20 70 39 36 19 79 42 95
52 41 24 45 23 88 -12z"/>
</g>
</svg>
