<svg xmlns="http://www.w3.org/2000/svg" viewBox="0 0 100 100" role="img" aria-label="Kaelix">
<path d="M52.04 67.10 L44.29 70.54" fill="none" stroke="rgb(14,59,95)" stroke-width="6" stroke-linecap="round"></path><path d="M55.71 29.46 L47.96 32.90" fill="none" stroke="rgb(4,80,81)" stroke-width="6" stroke-linecap="round"></path><path d="M52.04 31.10 L44.29 34.54" fill="none" stroke="rgb(5,79,81)" stroke-width="6" stroke-linecap="round"></path><path d="M55.71 65.46 L47.96 68.90" fill="none" stroke="rgb(13,60,95)" stroke-width="6" stroke-linecap="round"></path><path d="M48.33 68.74 L40.74 72.17" fill="none" stroke="rgb(14,59,98)" stroke-width="6" stroke-linecap="round"></path><path d="M48.33 32.74 L40.74 36.17" fill="none" stroke="rgb(5,79,83)" stroke-width="6" stroke-linecap="round"></path><path d="M59.26 63.83 L51.67 67.26" fill="none" stroke="rgb(13,61,96)" stroke-width="6" stroke-linecap="round"></path><path d="M59.26 27.83 L51.67 31.26" fill="none" stroke="rgb(4,82,81)" stroke-width="6" stroke-linecap="round"></path><path d="M44.65 34.37 L37.38 37.81" fill="none" stroke="rgb(6,81,86)" stroke-width="6" stroke-linecap="round"></path><path d="M44.65 70.37 L37.38 73.81" fill="none" stroke="rgb(15,59,101)" stroke-width="6" stroke-linecap="round"></path><path d="M62.62 26.19 L55.35 29.63" fill="none" stroke="rgb(4,86,83)" stroke-width="6" stroke-linecap="round"></path><path d="M62.62 62.19 L55.35 65.63" fill="none" stroke="rgb(13,64,98)" stroke-width="6" stroke-linecap="round"></path><path d="M41.09 36.01 L34.27 39.45" fill="none" stroke="rgb(6,83,91)" stroke-width="6" stroke-linecap="round"></path><path d="M41.09 72.01 L34.27 75.45" fill="none" stroke="rgb(16,61,106)" stroke-width="6" stroke-linecap="round"></path><path d="M65.73 24.55 L58.91 27.99" fill="none" stroke="rgb(3,90,86)" stroke-width="6" stroke-linecap="round"></path><path d="M65.73 60.55 L58.91 63.99" fill="none" stroke="rgb(13,68,101)" stroke-width="6" stroke-linecap="round"></path><path d="M37.70 73.65 L31.48 77.08" fill="none" stroke="rgb(18,63,112)" stroke-width="6" stroke-linecap="round"></path><path d="M37.70 37.65 L31.48 41.08" fill="none" stroke="rgb(7,86,96)" stroke-width="6" stroke-linecap="round"></path><path d="M68.52 22.92 L62.30 26.35" fill="none" stroke="rgb(3,96,89)" stroke-width="6" stroke-linecap="round"></path><path d="M68.52 58.92 L62.30 62.35" fill="none" stroke="rgb(13,73,106)" stroke-width="6" stroke-linecap="round"></path><path d="M34.57 39.28 L29.08 42.72" fill="none" stroke="rgb(8,91,103)" stroke-width="6" stroke-linecap="round"></path><path d="M34.57 75.28 L29.08 78.72" fill="none" stroke="rgb(19,66,120)" stroke-width="6" stroke-linecap="round"></path><path d="M70.92 21.28 L65.43 24.72" fill="none" stroke="rgb(3,103,94)" stroke-width="6" stroke-linecap="round"></path><path d="M70.92 57.28 L65.43 60.72" fill="none" stroke="rgb(14,78,111)" stroke-width="6" stroke-linecap="round"></path><path d="M31.75 40.92 L27.09 44.35" fill="none" stroke="rgb(9,95,110)" stroke-width="6" stroke-linecap="round"></path><path d="M31.75 76.92 L27.09 80.35" fill="none" stroke="rgb(21,69,129)" stroke-width="6" stroke-linecap="round"></path><path d="M72.91 19.65 L68.25 23.08" fill="none" stroke="rgb(2,111,99)" stroke-width="6" stroke-linecap="round"></path><path d="M72.91 55.65 L68.25 59.08" fill="none" stroke="rgb(14,85,118)" stroke-width="6" stroke-linecap="round"></path><path d="M29.30 78.55 L25.58 81.99" fill="none" stroke="rgb(23,72,139)" stroke-width="6" stroke-linecap="round"></path><path d="M74.42 18.01 L70.70 21.45" fill="none" stroke="rgb(2,120,105)" stroke-width="6" stroke-linecap="round"></path><path d="M74.42 54.01 L70.70 57.45" fill="none" stroke="rgb(15,92,125)" stroke-width="6" stroke-linecap="round"></path><path d="M29.30 42.55 L25.58 45.99" fill="none" stroke="rgb(11,101,119)" stroke-width="6" stroke-linecap="round"></path><path d="M27.27 80.19 L24.56 83.63" fill="none" stroke="rgb(25,76,149)" stroke-width="6" stroke-linecap="round"></path><path d="M27.27 44.19 L24.56 47.63" fill="none" stroke="rgb(12,106,128)" stroke-width="6" stroke-linecap="round"></path><path d="M75.44 52.37 L72.73 55.81" fill="none" stroke="rgb(15,100,133)" stroke-width="6" stroke-linecap="round"></path><path d="M75.44 16.37 L72.73 19.81" fill="none" stroke="rgb(2,130,112)" stroke-width="6" stroke-linecap="round"></path><path d="M75.95 14.74 L74.30 18.17" fill="none" stroke="rgb(1,140,119)" stroke-width="6" stroke-linecap="round"></path><path d="M25.70 81.83 L24.05 85.26" fill="none" stroke="rgb(28,80,161)" stroke-width="6" stroke-linecap="round"></path><path d="M25.70 45.83 L24.05 49.26" fill="none" stroke="rgb(13,112,138)" stroke-width="6" stroke-linecap="round"></path><path d="M75.95 50.74 L74.30 54.17" fill="none" stroke="rgb(15,108,141)" stroke-width="6" stroke-linecap="round"></path><path d="M24.63 47.46 L24.08 50.90" fill="none" stroke="rgb(15,118,148)" stroke-width="6" stroke-linecap="round"></path><path d="M75.92 49.10 L75.37 52.54" fill="none" stroke="rgb(16,117,149)" stroke-width="6" stroke-linecap="round"></path><path d="M76.00 14.00 L75.37 16.54" fill="none" stroke="rgb(0,151,125)" stroke-width="6" stroke-linecap="round"></path><path d="M24.63 83.46 L24.00 86.00" fill="none" stroke="rgb(30,84,172)" stroke-width="6" stroke-linecap="round"></path><path d="M75.37 83.46 L76.00 86.00" fill="none" stroke="rgb(32,89,183)" stroke-width="6" stroke-linecap="round"></path><path d="M24.00 14.00 L24.63 16.54" fill="none" stroke="rgb(0,161,133)" stroke-width="6" stroke-linecap="round"></path><path d="M24.08 49.10 L24.63 52.54" fill="none" stroke="rgb(17,124,159)" stroke-width="6" stroke-linecap="round"></path><path d="M75.37 47.46 L75.92 50.90" fill="none" stroke="rgb(16,126,158)" stroke-width="6" stroke-linecap="round"></path><path d="M24.05 50.74 L25.70 54.17" fill="none" stroke="rgb(18,129,169)" stroke-width="6" stroke-linecap="round"></path><path d="M74.30 45.83 L75.95 49.26" fill="none" stroke="rgb(16,135,166)" stroke-width="6" stroke-linecap="round"></path><path d="M74.30 81.83 L75.95 85.26" fill="none" stroke="rgb(33,96,193)" stroke-width="6" stroke-linecap="round"></path><path d="M24.05 14.74 L25.70 18.17" fill="none" stroke="rgb(1,168,142)" stroke-width="6" stroke-linecap="round"></path><path d="M24.56 16.37 L27.27 19.81" fill="none" stroke="rgb(2,176,151)" stroke-width="6" stroke-linecap="round"></path><path d="M24.56 52.37 L27.27 55.81" fill="none" stroke="rgb(20,135,180)" stroke-width="6" stroke-linecap="round"></path><path d="M72.73 44.19 L75.44 47.63" fill="none" stroke="rgb(16,144,173)" stroke-width="6" stroke-linecap="round"></path><path d="M72.73 80.19 L75.44 83.63" fill="none" stroke="rgb(34,103,202)" stroke-width="6" stroke-linecap="round"></path><path d="M70.70 42.55 L74.42 45.99" fill="none" stroke="rgb(16,153,180)" stroke-width="6" stroke-linecap="round"></path><path d="M25.58 54.01 L29.30 57.45" fill="none" stroke="rgb(22,139,190)" stroke-width="6" stroke-linecap="round"></path><path d="M25.58 18.01 L29.30 21.45" fill="none" stroke="rgb(3,182,160)" stroke-width="6" stroke-linecap="round"></path><path d="M70.70 78.55 L74.42 81.99" fill="none" stroke="rgb(35,110,210)" stroke-width="6" stroke-linecap="round"></path><path d="M27.09 55.65 L31.75 59.08" fill="none" stroke="rgb(24,143,200)" stroke-width="6" stroke-linecap="round"></path><path d="M27.09 19.65 L31.75 23.08" fill="none" stroke="rgb(4,188,168)" stroke-width="6" stroke-linecap="round"></path><path d="M68.25 76.92 L72.91 80.35" fill="none" stroke="rgb(36,117,218)" stroke-width="6" stroke-linecap="round"></path><path d="M68.25 40.92 L72.91 44.35" fill="none" stroke="rgb(16,161,187)" stroke-width="6" stroke-linecap="round"></path><path d="M29.08 57.28 L34.57 60.72" fill="none" stroke="rgb(26,146,208)" stroke-width="6" stroke-linecap="round"></path><path d="M29.08 21.28 L34.57 24.72" fill="none" stroke="rgb(5,193,176)" stroke-width="6" stroke-linecap="round"></path><path d="M65.43 75.28 L70.92 78.72" fill="none" stroke="rgb(36,123,224)" stroke-width="6" stroke-linecap="round"></path><path d="M65.43 39.28 L70.92 42.72" fill="none" stroke="rgb(15,169,192)" stroke-width="6" stroke-linecap="round"></path><path d="M31.48 58.92 L37.70 62.35" fill="none" stroke="rgb(27,148,216)" stroke-width="6" stroke-linecap="round"></path><path d="M31.48 22.92 L37.70 26.35" fill="none" stroke="rgb(6,196,183)" stroke-width="6" stroke-linecap="round"></path><path d="M62.30 37.65 L68.52 41.08" fill="none" stroke="rgb(15,177,197)" stroke-width="6" stroke-linecap="round"></path><path d="M62.30 73.65 L68.52 77.08" fill="none" stroke="rgb(36,129,230)" stroke-width="6" stroke-linecap="round"></path><path d="M34.27 60.55 L41.09 63.99" fill="none" stroke="rgb(29,150,223)" stroke-width="6" stroke-linecap="round"></path><path d="M34.27 24.55 L41.09 27.99" fill="none" stroke="rgb(7,199,189)" stroke-width="6" stroke-linecap="round"></path><path d="M58.91 72.01 L65.73 75.45" fill="none" stroke="rgb(36,134,234)" stroke-width="6" stroke-linecap="round"></path><path d="M58.91 36.01 L65.73 39.45" fill="none" stroke="rgb(14,183,200)" stroke-width="6" stroke-linecap="round"></path><path d="M37.38 62.19 L44.65 65.63" fill="none" stroke="rgb(31,150,229)" stroke-width="6" stroke-linecap="round"></path><path d="M37.38 26.19 L44.65 29.63" fill="none" stroke="rgb(9,200,194)" stroke-width="6" stroke-linecap="round"></path><path d="M55.35 70.37 L62.62 73.81" fill="none" stroke="rgb(36,139,237)" stroke-width="6" stroke-linecap="round"></path><path d="M55.35 34.37 L62.62 37.81" fill="none" stroke="rgb(14,189,202)" stroke-width="6" stroke-linecap="round"></path><path d="M40.74 27.83 L48.33 31.26" fill="none" stroke="rgb(10,201,198)" stroke-width="6" stroke-linecap="round"></path><path d="M40.74 63.83 L48.33 67.26" fill="none" stroke="rgb(32,150,233)" stroke-width="6" stroke-linecap="round"></path><path d="M51.67 32.74 L59.26 36.17" fill="none" stroke="rgb(13,194,203)" stroke-width="6" stroke-linecap="round"></path><path d="M51.67 68.74 L59.26 72.17" fill="none" stroke="rgb(35,143,238)" stroke-width="6" stroke-linecap="round"></path><path d="M44.29 65.46 L52.04 68.90" fill="none" stroke="rgb(33,149,236)" stroke-width="6" stroke-linecap="round"></path><path d="M44.29 29.46 L52.04 32.90" fill="none" stroke="rgb(11,200,201)" stroke-width="6" stroke-linecap="round"></path><path d="M47.96 31.10 L55.71 34.54" fill="none" stroke="rgb(12,197,202)" stroke-width="6" stroke-linecap="round"></path><path d="M47.96 67.10 L55.71 70.54" fill="none" stroke="rgb(34,146,238)" stroke-width="6" stroke-linecap="round"></path>
</svg>